<svg id="svg" version="1.1" xmlns="http://www.w3.org/2000/svg" xmlns:xlink="http://www.w3.org/1999/xlink" width="400" height="445" viewBox="0, 0, 400,445"><g id="svgg"><path id="path0" d="M381.949 34.184 C 381.847 34.286,378.802 34.853,375.182 35.445 C 371.562 36.038,368.510 36.640,368.400 36.785 C 368.186 37.066,363.587 37.969,356.800 39.062 C 354.490 39.434,352.510 39.870,352.400 40.031 C 352.290 40.191,348.333 40.983,343.606 41.790 C 338.880 42.596,334.920 43.393,334.806 43.561 C 334.693 43.728,331.091 44.451,326.803 45.166 C 322.514 45.882,318.914 46.601,318.803 46.764 C 318.691 46.927,315.090 47.653,310.800 48.376 C 306.510 49.099,302.910 49.827,302.800 49.994 C 302.690 50.161,300.260 50.681,297.400 51.150 C 289.813 52.395,285.028 53.320,284.800 53.586 C 284.690 53.715,282.620 54.146,280.200 54.544 C 273.526 55.642,269.022 56.530,268.800 56.792 C 268.627 56.996,264.868 57.704,255.400 59.319 C 254.080 59.544,252.910 59.844,252.800 59.985 C 252.619 60.219,250.751 60.573,238.400 62.716 C 236.310 63.079,234.510 63.477,234.400 63.600 C 234.191 63.835,226.237 65.359,221.400 66.091 C 219.860 66.325,218.510 66.632,218.400 66.775 C 218.220 67.010,210.695 68.451,203.400 69.648 C 201.860 69.901,200.510 70.226,200.400 70.370 C 200.180 70.659,195.292 71.610,188.800 72.627 C 186.490 72.989,184.510 73.411,184.400 73.566 C 184.190 73.862,179.836 74.719,172.800 75.850 C 170.490 76.221,168.510 76.642,168.400 76.786 C 168.183 77.069,163.981 77.888,155.800 79.242 C 152.940 79.715,150.510 80.237,150.400 80.402 C 150.290 80.568,146.690 81.286,142.400 82.000 C 138.110 82.714,134.510 83.435,134.400 83.603 C 134.290 83.771,130.780 84.484,126.600 85.188 C 122.420 85.892,118.940 86.632,118.867 86.834 C 118.793 87.035,118.388 87.200,117.967 87.200 C 117.213 87.200,117.200 89.081,117.200 198.600 L 117.200 310.000 110.900 309.999 C 104.503 309.998,95.964 310.668,95.600 311.200 C 95.490 311.361,94.140 311.699,92.600 311.952 C 88.672 312.598,82.239 314.096,82.000 314.422 C 81.890 314.572,80.720 314.998,79.400 315.370 C 75.888 316.360,73.600 317.261,73.600 317.654 C 73.600 317.844,73.336 318.000,73.014 318.000 C 72.691 318.000,71.836 318.255,71.114 318.566 C 70.391 318.877,68.810 319.530,67.600 320.016 C 66.390 320.503,65.310 321.031,65.200 321.190 C 65.090 321.349,63.743 322.075,62.206 322.805 C 60.670 323.534,59.147 324.396,58.822 324.721 C 58.497 325.045,57.635 325.560,56.907 325.865 C 56.178 326.169,55.266 326.729,54.880 327.109 C 54.494 327.489,53.013 328.512,51.589 329.382 C 50.165 330.252,48.672 331.377,48.271 331.882 C 47.870 332.387,47.343 332.800,47.100 332.800 C 46.627 332.800,46.198 333.191,39.300 339.906 C 36.825 342.316,34.800 344.479,34.800 344.714 C 34.800 344.950,34.389 345.470,33.887 345.871 C 33.385 346.272,32.582 347.230,32.103 348.000 C 31.623 348.770,30.774 349.923,30.215 350.563 C 29.656 351.203,28.743 352.688,28.187 353.863 C 27.631 355.038,27.029 356.000,26.848 356.000 C 26.558 356.000,25.483 358.374,23.995 362.300 C 23.725 363.015,23.373 363.600,23.213 363.600 C 22.321 363.600,20.407 374.907,20.404 380.200 C 20.400 385.607,22.204 395.200,23.224 395.200 C 23.377 395.200,23.905 396.145,24.397 397.300 C 25.915 400.859,33.072 409.600,34.469 409.600 C 34.658 409.600,36.024 410.473,37.506 411.539 C 40.945 414.015,46.847 416.893,51.200 418.217 C 53.070 418.785,54.930 419.430,55.333 419.649 C 57.345 420.744,67.043 421.743,75.600 421.737 C 83.678 421.732,85.331 421.597,95.100 420.147 C 96.035 420.008,96.800 419.738,96.800 419.547 C 96.800 419.356,97.073 419.200,97.406 419.200 C 98.553 419.200,106.594 417.132,108.196 416.425 C 109.078 416.035,111.285 415.198,113.100 414.565 C 114.915 413.932,116.400 413.276,116.400 413.107 C 116.400 412.938,116.595 412.800,116.833 412.800 C 118.234 412.800,126.701 408.365,130.200 405.798 C 130.860 405.314,131.695 404.815,132.055 404.689 C 136.602 403.097,156.398 382.801,156.400 379.728 C 156.400 379.548,157.120 378.230,158.000 376.800 C 158.880 375.370,159.600 373.979,159.600 373.709 C 159.600 373.439,160.225 371.882,160.989 370.250 C 161.867 368.376,162.751 365.443,163.389 362.291 L 164.400 357.299 164.400 248.930 L 164.400 140.560 169.100 139.834 C 171.685 139.435,173.980 138.970,174.200 138.800 C 174.420 138.630,178.020 137.923,182.200 137.229 C 186.380 136.534,190.160 135.796,190.600 135.589 C 191.040 135.382,195.270 134.577,200.000 133.800 C 204.730 133.023,208.960 132.220,209.400 132.015 C 209.840 131.811,213.611 131.072,217.780 130.375 C 221.950 129.677,225.640 128.954,225.980 128.768 C 226.321 128.581,230.011 127.861,234.180 127.168 C 238.350 126.474,242.040 125.756,242.380 125.572 C 242.721 125.388,247.050 124.575,252.000 123.764 C 256.950 122.954,261.180 122.156,261.400 121.991 C 261.620 121.826,262.610 121.569,263.600 121.420 C 268.761 120.644,277.100 119.104,277.800 118.798 C 278.240 118.606,280.850 118.076,283.600 117.621 C 293.859 115.922,295.820 115.561,296.600 115.228 C 297.040 115.041,300.910 114.308,305.200 113.600 C 309.490 112.892,313.360 112.160,313.800 111.973 C 314.585 111.639,323.867 109.916,327.800 109.374 C 328.900 109.223,329.980 108.964,330.200 108.799 C 330.616 108.486,336.039 107.470,336.166 107.680 C 336.206 107.746,336.166 142.548,336.077 185.017 L 335.915 262.234 327.658 262.245 C 319.414 262.257,308.362 263.275,308.067 264.050 C 307.993 264.243,307.575 264.400,307.136 264.400 C 305.824 264.400,294.400 267.242,294.400 267.569 C 294.400 267.734,292.555 268.473,290.300 269.211 C 288.045 269.948,285.980 270.770,285.710 271.037 C 285.441 271.304,283.911 272.012,282.310 272.611 C 280.710 273.210,279.220 273.916,279.000 274.180 C 278.780 274.444,277.340 275.272,275.800 276.021 C 274.260 276.769,272.820 277.591,272.600 277.846 C 272.380 278.101,271.303 278.800,270.207 279.399 C 269.110 279.998,267.975 280.828,267.684 281.244 C 267.393 281.660,266.957 282.000,266.715 282.000 C 266.473 282.000,265.686 282.450,264.964 283.000 C 264.243 283.550,263.569 284.000,263.467 284.000 C 263.364 284.000,262.587 284.643,261.740 285.429 C 260.893 286.215,259.570 287.396,258.800 288.053 C 256.217 290.258,252.400 294.036,252.400 294.389 C 252.400 294.581,251.680 295.354,250.800 296.107 C 249.920 296.860,249.200 297.606,249.200 297.765 C 249.200 298.101,247.401 300.556,246.098 301.998 C 245.602 302.547,244.836 303.762,244.396 304.698 C 243.956 305.634,243.457 306.400,243.286 306.400 C 242.936 306.400,240.400 311.611,240.400 312.332 C 240.400 312.589,240.244 312.800,240.054 312.800 C 239.625 312.800,238.201 316.647,237.536 319.600 C 237.263 320.810,236.907 321.894,236.744 322.009 C 235.250 323.061,235.351 342.800,236.850 342.800 C 237.007 342.800,237.262 343.385,237.416 344.100 C 237.845 346.093,239.641 350.400,240.043 350.400 C 240.239 350.400,240.400 350.577,240.400 350.794 C 240.400 351.496,242.949 355.378,243.918 356.153 C 244.436 356.566,245.019 357.325,245.214 357.838 C 245.409 358.351,246.296 359.229,247.184 359.790 C 248.073 360.351,248.800 360.988,248.800 361.205 C 248.800 361.422,249.045 361.600,249.345 361.600 C 249.645 361.600,250.590 362.160,251.445 362.844 C 253.790 364.721,256.706 366.476,259.600 367.754 C 261.030 368.385,262.961 369.249,263.890 369.674 C 264.820 370.099,267.430 370.894,269.690 371.441 C 271.951 371.988,274.098 372.599,274.463 372.798 C 277.741 374.590,305.459 374.589,307.800 372.797 C 308.020 372.628,309.010 372.365,310.000 372.212 C 312.807 371.778,320.069 370.007,321.400 369.431 C 322.060 369.146,324.175 368.400,326.100 367.774 C 328.025 367.147,329.600 366.492,329.600 366.318 C 329.600 366.143,329.830 366.000,330.112 366.000 C 330.968 366.000,336.844 363.394,339.467 361.851 C 340.824 361.053,342.073 360.400,342.243 360.400 C 342.576 360.400,343.317 359.938,348.200 356.689 C 349.960 355.518,351.670 354.453,352.000 354.322 C 355.497 352.934,370.760 337.641,373.506 332.774 C 373.932 332.018,374.713 330.765,375.240 329.988 C 375.768 329.212,376.650 327.682,377.200 326.588 C 377.750 325.495,378.292 324.510,378.404 324.400 C 378.678 324.131,380.213 320.187,380.818 318.200 C 381.085 317.320,381.457 316.406,381.644 316.169 C 383.178 314.222,383.189 313.271,383.296 170.900 C 383.405 27.025,383.461 32.672,381.949 34.184 " stroke="none" fill="#fcfcfc" fill-rule="evenodd"></path><path id="path1" d="M391.400 52.725 C 389.640 53.071,388.110 53.474,388.000 53.623 C 387.890 53.771,386.765 54.019,385.500 54.175 L 383.200 54.458 383.198 181.329 C 383.197 313.534,383.189 314.206,381.638 316.176 C 381.455 316.409,381.085 317.320,380.818 318.200 C 380.213 320.187,378.678 324.131,378.404 324.400 C 378.292 324.510,377.750 325.495,377.200 326.588 C 376.650 327.682,375.768 329.212,375.240 329.988 C 374.713 330.765,373.932 332.018,373.506 332.774 C 370.760 337.641,355.497 352.934,352.000 354.322 C 351.670 354.453,349.960 355.518,348.200 356.689 C 343.317 359.938,342.576 360.400,342.243 360.400 C 342.073 360.400,340.824 361.053,339.467 361.851 C 336.844 363.394,330.968 366.000,330.112 366.000 C 329.830 366.000,329.600 366.143,329.600 366.318 C 329.600 366.492,328.025 367.147,326.100 367.774 C 324.175 368.400,322.060 369.146,321.400 369.431 C 320.069 370.007,312.807 371.778,310.000 372.212 C 309.010 372.365,308.020 372.628,307.800 372.797 C 305.459 374.589,277.741 374.590,274.463 372.798 C 274.098 372.599,271.951 371.988,269.690 371.441 C 267.430 370.894,264.820 370.099,263.890 369.674 C 262.961 369.249,261.030 368.385,259.600 367.754 C 256.706 366.476,253.790 364.721,251.445 362.844 C 250.590 362.160,249.723 361.600,249.518 361.600 C 249.073 361.600,249.555 363.342,250.053 363.533 C 250.244 363.607,250.400 363.897,250.400 364.178 C 250.400 365.016,252.777 370.000,253.177 370.000 C 253.380 370.000,253.672 370.405,253.826 370.900 C 254.123 371.853,255.750 374.045,257.898 376.385 C 258.612 377.163,259.197 377.935,259.198 378.100 C 259.199 378.265,259.401 378.400,259.647 378.400 C 259.893 378.400,260.684 378.895,261.404 379.500 C 262.124 380.105,263.318 381.109,264.056 381.731 C 264.795 382.354,266.165 383.228,267.100 383.675 C 268.035 384.122,268.800 384.623,268.800 384.788 C 268.800 384.952,270.285 385.673,272.100 386.389 C 273.915 387.105,275.490 387.821,275.600 387.981 C 275.804 388.277,282.266 390.131,284.800 390.622 C 285.570 390.771,286.384 391.039,286.608 391.219 C 288.863 393.023,317.032 392.986,320.375 391.174 C 320.719 390.988,322.530 390.549,324.400 390.198 C 328.873 389.360,332.902 388.376,333.400 388.001 C 333.620 387.835,335.645 387.116,337.900 386.402 C 340.155 385.688,342.000 384.946,342.000 384.752 C 342.000 384.558,342.221 384.400,342.491 384.400 C 343.129 384.400,350.139 381.549,350.400 381.183 C 350.510 381.029,351.770 380.317,353.200 379.602 C 354.630 378.886,355.853 378.165,355.917 377.999 C 355.981 377.834,357.376 377.026,359.017 376.205 C 360.658 375.383,362.000 374.559,362.000 374.374 C 362.000 374.189,362.587 373.759,363.304 373.419 C 364.022 373.078,365.057 372.395,365.604 371.900 C 366.152 371.405,367.230 370.525,368.000 369.945 C 368.770 369.364,369.940 368.406,370.600 367.816 C 371.260 367.226,372.380 366.288,373.089 365.733 C 374.758 364.424,377.729 361.429,380.000 358.766 C 380.990 357.605,382.295 356.165,382.900 355.567 C 383.505 354.969,384.000 354.303,384.000 354.088 C 384.000 353.874,384.253 353.488,384.563 353.231 C 384.873 352.974,385.421 352.141,385.782 351.382 C 386.143 350.622,386.588 350.000,386.772 350.000 C 386.956 350.000,387.561 349.039,388.118 347.864 C 388.674 346.689,389.373 345.474,389.672 345.164 C 389.970 344.854,390.544 343.790,390.947 342.800 C 391.351 341.810,391.933 340.409,392.240 339.686 C 392.548 338.964,392.800 338.109,392.800 337.786 C 392.800 337.464,392.952 337.200,393.137 337.200 C 393.594 337.200,394.232 334.912,394.976 330.600 C 395.819 325.719,395.940 51.967,395.100 52.049 C 394.825 52.076,393.160 52.380,391.400 52.725 M333.000 108.053 C 331.900 108.253,330.640 108.583,330.200 108.786 C 329.760 108.989,328.590 109.269,327.600 109.409 C 323.593 109.974,314.549 111.654,313.800 111.973 C 313.360 112.160,309.490 112.892,305.200 113.600 C 300.910 114.308,297.040 115.041,296.600 115.228 C 295.820 115.561,293.859 115.922,283.600 117.621 C 280.850 118.076,278.240 118.606,277.800 118.798 C 277.100 119.104,268.761 120.644,263.600 121.420 C 262.610 121.569,261.620 121.826,261.400 121.991 C 261.180 122.156,256.950 122.954,252.000 123.764 C 247.050 124.575,242.721 125.388,242.380 125.572 C 242.040 125.756,238.350 126.474,234.180 127.168 C 230.011 127.861,226.321 128.581,225.980 128.768 C 225.640 128.954,221.950 129.677,217.780 130.375 C 213.611 131.072,209.840 131.811,209.400 132.015 C 208.960 132.220,204.730 133.023,200.000 133.800 C 195.270 134.577,191.040 135.382,190.600 135.589 C 190.160 135.796,186.380 136.534,182.200 137.229 C 178.020 137.923,174.420 138.630,174.200 138.800 C 173.980 138.970,171.685 139.435,169.100 139.834 L 164.400 140.560 164.400 248.930 L 164.400 357.299 163.389 362.291 C 162.751 365.443,161.867 368.376,160.989 370.250 C 160.225 371.882,159.600 373.439,159.600 373.709 C 159.600 373.979,158.880 375.370,158.000 376.800 C 157.120 378.230,156.400 379.548,156.400 379.728 C 156.398 382.801,136.602 403.097,132.055 404.689 C 131.695 404.815,130.860 405.314,130.200 405.798 C 126.701 408.365,118.234 412.800,116.833 412.800 C 116.595 412.800,116.400 412.938,116.400 413.107 C 116.400 413.276,114.915 413.932,113.100 414.565 C 111.285 415.198,109.078 416.035,108.196 416.425 C 106.594 417.132,98.553 419.200,97.406 419.200 C 97.073 419.200,96.800 419.356,96.800 419.547 C 96.800 419.738,96.035 420.008,95.100 420.147 C 85.331 421.597,83.678 421.732,75.600 421.737 C 67.043 421.743,57.345 420.744,55.333 419.649 C 54.930 419.430,53.070 418.785,51.200 418.217 C 46.847 416.893,40.945 414.015,37.506 411.539 C 36.024 410.473,34.705 409.600,34.574 409.600 C 33.989 409.600,36.033 415.468,36.803 416.000 C 36.962 416.110,37.467 416.939,37.925 417.842 C 38.382 418.745,39.172 419.986,39.678 420.600 C 41.335 422.607,46.157 427.600,46.440 427.600 C 46.591 427.600,47.293 428.140,48.000 428.800 C 48.707 429.460,49.492 430.000,49.746 430.000 C 50.000 430.000,50.656 430.411,51.204 430.913 C 52.376 431.987,56.132 434.000,56.964 434.000 C 57.282 434.000,57.821 434.278,58.161 434.618 C 58.803 435.261,65.607 437.600,66.833 437.600 C 67.218 437.600,67.594 437.782,67.668 438.004 C 67.871 438.613,77.861 439.967,84.200 440.244 C 91.946 440.583,108.746 439.052,109.133 437.972 C 109.207 437.767,109.541 437.600,109.877 437.600 C 110.927 437.600,120.589 435.120,120.800 434.796 C 120.910 434.627,121.630 434.304,122.400 434.077 C 125.393 433.198,128.525 431.932,129.078 431.379 C 129.397 431.061,129.898 430.800,130.191 430.800 C 130.844 430.800,136.101 428.469,136.391 428.051 C 136.506 427.886,137.815 427.146,139.300 426.407 C 140.785 425.668,142.000 424.932,142.000 424.772 C 142.000 424.612,142.729 424.101,143.619 423.637 C 145.659 422.574,150.221 419.216,151.800 417.616 C 152.460 416.947,153.153 416.400,153.339 416.400 C 153.525 416.400,155.451 414.555,157.619 412.300 C 162.951 406.753,163.397 406.246,164.850 404.081 C 165.544 403.046,166.311 402.016,166.556 401.792 C 167.078 401.312,167.851 400.015,168.932 397.803 C 169.361 396.925,169.936 396.025,170.210 395.803 C 170.484 395.581,171.201 394.140,171.803 392.600 C 172.406 391.060,173.045 389.706,173.224 389.592 C 173.705 389.285,175.436 383.070,176.036 379.500 C 176.322 377.795,176.701 376.400,176.878 376.400 C 177.055 376.400,177.200 327.465,177.200 267.655 L 177.200 158.911 181.698 158.220 C 184.172 157.841,186.287 157.397,186.398 157.235 C 186.509 157.073,190.200 156.348,194.600 155.624 C 199.000 154.900,202.690 154.181,202.800 154.026 C 202.910 153.871,207.230 153.056,212.400 152.213 C 217.570 151.371,221.890 150.558,222.000 150.407 C 222.110 150.255,225.800 149.536,230.200 148.808 C 234.600 148.080,238.290 147.360,238.400 147.208 C 238.510 147.056,242.200 146.336,246.600 145.608 C 251.000 144.880,254.690 144.161,254.800 144.011 C 254.910 143.861,259.230 143.049,264.400 142.207 C 269.570 141.364,273.890 140.552,274.000 140.401 C 274.110 140.251,277.800 139.530,282.200 138.800 C 286.600 138.070,290.290 137.349,290.400 137.198 C 290.510 137.048,293.030 136.526,296.000 136.040 C 298.970 135.553,303.110 134.874,305.200 134.529 C 307.290 134.185,309.090 133.785,309.200 133.640 C 309.310 133.496,313.090 132.765,317.600 132.015 C 322.110 131.266,325.890 130.540,326.000 130.403 C 326.110 130.265,328.090 129.833,330.400 129.443 C 332.710 129.053,335.005 128.639,335.500 128.524 L 336.400 128.313 336.400 117.957 C 336.400 106.280,336.773 107.367,333.000 108.053 " stroke="none" fill="#040404" fill-rule="evenodd"></path></g></svg>