<?xml version="1.0" standalone="no"?>
<!DOCTYPE svg PUBLIC "-//W3C//DTD SVG 20010904//EN"
 "http://www.w3.org/TR/2001/REC-SVG-20010904/DTD/svg10.dtd">
<svg version="1.0" xmlns="http://www.w3.org/2000/svg"
 width="242.000000pt" height="139.000000pt" viewBox="0 0 242.000000 139.000000"
 preserveAspectRatio="xMidYMid meet">
<metadata>
Created by potrace 1.15, written by Peter Selinger 2001-2017
</metadata>
<g transform="translate(0.000000,139.000000) scale(0.100000,-0.100000)"
fill="#000000" stroke="none">
<path d="M1185 1382 c-11 -2 -31 -12 -45 -22 -14 -9 -33 -20 -42 -23 -10 -4
-18 -11 -18 -17 0 -5 -9 -10 -19 -10 -11 0 -21 -3 -23 -7 -1 -5 -29 -21 -60
-38 -32 -16 -58 -33 -58 -37 0 -4 -7 -8 -15 -8 -8 0 -39 -16 -69 -35 -30 -19
-59 -35 -64 -35 -6 0 -12 -7 -16 -15 -3 -8 -15 -15 -26 -15 -11 0 -20 -4 -20
-8 0 -4 -15 -14 -34 -20 -19 -7 -37 -19 -40 -27 -3 -8 -14 -15 -25 -15 -11 0
-21 -3 -23 -7 -1 -5 -29 -21 -61 -38 -31 -16 -57 -33 -57 -37 0 -4 -9 -8 -20
-8 -11 0 -20 -3 -20 -8 0 -8 -20 -19 -83 -47 -20 -10 -37 -21 -37 -25 0 -4 -8
-10 -17 -14 -24 -8 -146 -76 -153 -84 -3 -4 -27 -18 -55 -32 -27 -14 -57 -32
-66 -41 -15 -15 -12 -18 40 -45 30 -16 61 -35 69 -42 7 -6 20 -12 28 -12 8 0
14 -3 14 -7 0 -5 26 -21 58 -38 31 -16 59 -33 60 -37 2 -5 12 -8 22 -8 10 0
20 -3 22 -7 6 -14 87 -63 103 -63 8 0 15 -4 15 -8 0 -4 26 -21 58 -37 31 -17
59 -33 60 -37 2 -5 12 -8 23 -8 10 0 19 -5 19 -10 0 -6 26 -23 58 -38 31 -15
61 -33 65 -39 4 -7 16 -13 27 -13 10 0 20 -3 22 -7 6 -14 87 -63 103 -63 8 0
15 -4 15 -10 0 -5 9 -10 20 -10 11 0 20 -4 20 -9 0 -11 87 -61 106 -61 8 0 14
-4 14 -9 0 -5 14 -17 30 -25 17 -9 44 -23 60 -32 17 -8 30 -20 30 -25 0 -5 9
-9 20 -9 20 0 20 7 20 333 0 184 3 337 6 340 4 4 19 -2 34 -13 16 -11 35 -20
43 -20 8 0 17 -7 21 -15 3 -8 14 -15 25 -15 11 0 21 -3 23 -8 5 -11 128 -82
143 -82 7 0 15 -4 17 -9 5 -12 86 -61 102 -61 8 0 16 -3 18 -7 6 -14 87 -63
103 -63 8 0 15 -4 15 -10 0 -5 9 -10 20 -10 11 0 20 -4 20 -9 0 -11 87 -61
105 -61 7 0 15 -7 19 -15 3 -8 12 -15 21 -15 8 0 24 -8 34 -17 28 -24 119 -73
135 -73 8 0 16 -6 19 -13 5 -14 82 -57 102 -57 7 0 15 -6 18 -13 3 -8 30 -26
61 -41 31 -15 56 -32 56 -37 0 -5 9 -9 20 -9 20 0 20 7 20 695 l0 695 -26 -6
c-36 -9 -114 -54 -114 -65 0 -5 -9 -9 -20 -9 -11 0 -20 -4 -20 -10 0 -5 -7
-10 -15 -10 -16 0 -97 -49 -103 -62 -2 -5 -9 -8 -17 -8 -15 0 -122 -61 -147
-84 -10 -9 -25 -16 -33 -16 -8 0 -15 -4 -15 -8 0 -4 -15 -14 -34 -20 -19 -7
-37 -19 -40 -27 -3 -8 -15 -15 -26 -15 -11 0 -20 -4 -20 -10 0 -5 -7 -10 -15
-10 -16 0 -97 -49 -103 -62 -2 -5 -9 -8 -17 -8 -12 0 -118 -59 -142 -80 -7 -5
-17 -10 -22 -10 -5 0 -16 -6 -23 -12 -7 -7 -39 -26 -70 -41 -32 -16 -58 -33
-58 -38 0 -5 -9 -9 -20 -9 -11 0 -20 -3 -20 -7 0 -9 -49 -33 -67 -33 -10 0
-13 65 -13 324 0 179 -3 327 -7 329 -5 2 -17 1 -28 -1z"/>
</g>
</svg>
