<?xml version="1.0" standalone="no"?>
<!DOCTYPE svg PUBLIC "-//W3C//DTD SVG 20010904//EN"
 "http://www.w3.org/TR/2001/REC-SVG-20010904/DTD/svg10.dtd">
<svg version="1.0" xmlns="http://www.w3.org/2000/svg"
 width="128.000000pt" height="136.000000pt" viewBox="0 0 128.000000 136.000000"
 preserveAspectRatio="xMidYMid meet">
<metadata>
Created by potrace 1.15, written by Peter Selinger 2001-2017
</metadata>
<g transform="translate(0.000000,136.000000) scale(0.100000,-0.100000)"
fill="#000000" stroke="none">
<path d="M1030 1085 l0 -65 -159 0 c-88 0 -166 -3 -175 -6 -9 -3 -39 -47 -67
-97 l-52 -90 34 -64 c19 -34 36 -63 39 -63 3 0 29 43 58 95 l53 95 134 0 134
0 3 -58 3 -59 120 88 c66 48 121 92 123 97 1 5 -21 27 -50 48 -29 20 -86 62
-125 91 l-73 54 0 -66z"/>
<path d="M47 1002 c-22 -25 -21 -75 1 -95 16 -14 43 -17 164 -17 l145 0 162
-279 c89 -154 169 -282 177 -285 9 -3 87 -6 174 -6 l159 0 3 -63 3 -64 120 88
c66 49 120 93 120 99 0 6 -54 50 -120 99 l-120 88 -3 -59 -3 -58 -133 0 -134
0 -155 268 c-86 147 -165 276 -175 285 -16 15 -43 17 -194 17 -157 0 -177 -2
-191 -18z"/>
<path d="M411 545 l-53 -95 -147 0 c-164 0 -181 -6 -181 -67 0 -58 17 -63 212
-63 203 0 184 -9 261 124 36 62 43 81 34 91 -7 7 -24 33 -37 59 -14 25 -27 46
-30 46 -3 0 -29 -43 -59 -95z"/>
</g>
</svg>
