<?xml version="1.0" standalone="no"?>
<!DOCTYPE svg PUBLIC "-//W3C//DTD SVG 20010904//EN"
 "http://www.w3.org/TR/2001/REC-SVG-20010904/DTD/svg10.dtd">
<svg version="1.0" xmlns="http://www.w3.org/2000/svg"
 width="242.000000pt" height="139.000000pt" viewBox="0 0 242.000000 139.000000"
 preserveAspectRatio="xMidYMid meet">
<metadata>
Created by potrace 1.15, written by Peter Selinger 2001-2017
</metadata>
<g transform="translate(0.000000,139.000000) scale(0.100000,-0.100000)"
fill="#000000" stroke="none">
<path d="M0 695 c0 -688 0 -695 20 -695 11 0 20 4 20 9 0 5 25 22 56 37 31 15
58 33 61 41 3 7 11 13 18 13 20 0 97 43 102 57 3 7 11 13 19 13 16 0 107 49
135 73 10 9 26 17 34 17 9 0 18 7 21 15 4 8 12 15 19 15 18 0 105 50 105 61 0
5 9 9 20 9 11 0 20 5 20 10 0 6 7 10 15 10 16 0 97 49 103 63 2 4 10 7 18 7
16 0 97 49 102 61 2 5 10 9 17 9 15 0 138 71 143 82 2 5 12 8 23 8 11 0 22 7
25 15 4 8 13 15 21 15 8 0 27 9 43 20 15 11 30 17 34 13 3 -3 6 -156 6 -340 0
-326 0 -333 20 -333 11 0 20 4 20 9 0 5 14 17 30 25 17 9 44 23 60 32 17 8 30
20 30 25 0 5 6 9 14 9 19 0 106 50 106 61 0 5 9 9 20 9 11 0 20 5 20 10 0 6 7
10 15 10 16 0 97 49 103 63 2 4 12 7 22 7 11 0 23 6 27 13 4 6 34 24 66 39 31
15 57 32 57 38 0 5 9 10 19 10 11 0 21 3 23 8 2 4 29 20 61 37 31 16 57 33 57
37 0 4 7 8 15 8 16 0 97 49 103 63 2 4 12 7 22 7 10 0 20 3 22 8 2 4 29 21 60
37 32 17 58 33 58 38 0 4 6 7 14 7 8 0 21 6 28 13 8 6 39 25 69 41 52 27 55
30 40 45 -9 9 -39 27 -66 41 -28 14 -52 28 -55 32 -7 8 -129 76 -152 84 -10 4
-18 10 -18 14 0 4 -17 15 -37 25 -63 28 -83 39 -83 47 0 5 -9 8 -20 8 -11 0
-20 4 -20 8 0 4 -26 21 -57 37 -32 17 -59 33 -61 38 -2 4 -12 7 -23 7 -11 0
-22 7 -25 15 -3 8 -21 20 -40 27 -19 6 -34 16 -34 20 0 4 -9 8 -20 8 -11 0
-23 7 -26 15 -4 8 -10 15 -16 15 -5 0 -34 16 -64 35 -30 19 -61 35 -69 35 -8
0 -15 4 -15 8 0 4 -26 21 -57 37 -32 17 -59 33 -61 38 -2 4 -12 7 -23 7 -10 0
-19 5 -19 10 0 6 -8 13 -17 17 -10 3 -29 14 -43 24 -14 9 -36 19 -50 20 l-25
4 -3 -327 c-2 -259 -5 -328 -15 -328 -18 0 -67 24 -67 33 0 4 -9 7 -20 7 -11
0 -20 4 -20 9 0 5 -26 22 -57 38 -32 15 -64 34 -71 41 -7 6 -18 12 -23 12 -5
0 -15 5 -22 10 -24 21 -130 80 -142 80 -8 0 -15 3 -17 8 -6 13 -87 62 -103 62
-8 0 -15 5 -15 10 0 6 -9 10 -20 10 -11 0 -23 7 -26 15 -3 8 -21 20 -40 27
-19 6 -34 16 -34 20 0 4 -7 8 -15 8 -8 0 -23 7 -32 16 -26 23 -133 84 -148 84
-8 0 -15 3 -17 8 -6 13 -87 62 -103 62 -8 0 -15 5 -15 10 0 6 -9 10 -20 10
-11 0 -20 4 -20 9 0 11 -78 56 -114 65 l-26 6 0 -695z"/>
</g>
</svg>
